<svg xmlns="http://www.w3.org/2000/svg" viewBox="0 0 80 80" xml:space="preserve"><path fill="#18CEF6" d="M20.283 17.352h44.932v53.873H20.283z"/><path fill="#FFF" d="M26.467 39.705H53.74a1.788 1.788 0 0 0 0-3.576H26.467a1.788 1.788 0 1 0 0 3.576zM53.74 53.118H26.467a1.789 1.789 0 0 0 0 3.577H53.74a1.788 1.788 0 0 0 0-3.577z"/><path fill="#233251" d="M43.456 10.421V8.41a3.652 3.652 0 0 0-3.651-3.653 3.652 3.652 0 0 0-3.65 3.653v2.01H13.352v62.145h53.203V10.421H43.456zm-16.245 2.681h25.261v6.005a2.493 2.493 0 0 1-2.491 2.491H29.703a2.495 2.495 0 0 1-2.492-2.491v-6.005zM38.836 8.41a.97.97 0 0 1 1.938 0v2.01h-1.937l-.001-2.01zm25.038 61.474h-47.84V13.102h8.495v6.005a5.175 5.175 0 0 0 5.175 5.173h20.277a5.172 5.172 0 0 0 5.174-5.173v-6.005h8.72v56.782z"/></svg>