<svg xmlns="http://www.w3.org/2000/svg" viewBox="0 0 48 48"><defs><style>.cls-1{fill:#fc6}.cls-5{fill:#edebf2}.cls-7{fill:#82bcf4}.cls-8{fill:#7c7d7d}</style></defs><g id="Collections"><path class="cls-1" d="M47 26c-6.09 18.27-5 15.16-6 18H1l6-18z"/><path d="m47 26-5.33 16H21.86a12.16 12.16 0 0 1-11.53-16z" style="fill:#ffde76"/><path style="fill:#ffba55" d="M11 11v15H7L1 44V11h10z"/><path class="cls-1" d="M9 11v10.68A2.32 2.32 0 0 1 6.68 24a2.33 2.33 0 0 0-2.21 1.59L1 36V11z"/><path style="fill:#dad7e5" d="M41 10v16H17V4h18l6 6z"/><path class="cls-5" d="M41 10h-6V4l6 6z"/><path class="cls-5" d="M41 11v13c-13.13 0-21-9.71-21-20h14v6a1 1 0 0 0 1 1z"/><path style="fill:#6fabe6" d="M11 7h6v19h-6z"/><path class="cls-7" d="M15 7c0 17.84-.1 17 0 17a4 4 0 0 1-4-4V7zM41 10h-6V4l6 6z"/><path class="cls-8" d="M31 13H21a1 1 0 0 0 0 2h10a1 1 0 0 0 0-2zM27 17h-6a1 1 0 0 0 0 2h6a1 1 0 0 0 0-2z"/></g></svg>