<svg xmlns="http://www.w3.org/2000/svg" viewBox="0 0 512 512" style="enable-background:new 0 0 512 512" xml:space="preserve"><path style="fill:#fe8332" d="M270.215 121.263H460.8c23.812 0 43.116 19.304 43.116 43.116v258.695c0 23.812-19.304 43.116-43.116 43.116H51.2c-23.812 0-43.116-19.304-43.116-43.116V88.926c0-23.812 19.304-43.116 43.116-43.116h144.033a43.118 43.118 0 0 1 39.63 26.131l15.538 36.255a21.555 21.555 0 0 0 19.814 13.067z"/><path style="fill:#fef184" d="M40.421 412.295V175.158c0-11.906 9.651-21.558 21.558-21.558h388.042c11.906 0 21.558 9.651 21.558 21.558v237.137c0 11.906-9.651 21.558-21.558 21.558H61.979c-11.906 0-21.558-9.652-21.558-21.558z"/><path style="fill:#feaf50" d="M270.215 121.263H460.8c23.812 0 43.116 19.304 43.116 43.116v258.695c0 23.812-19.304 43.116-43.116 43.116H51.2c-23.812 0-43.116-19.304-43.116-43.116V239.832c0-23.812 19.304-43.116 43.116-43.116h144.033a43.118 43.118 0 0 0 39.63-26.131l15.538-36.255a21.557 21.557 0 0 1 19.814-13.067z"/><path style="fill:#fe9443" d="M428.463 401.516h75.453v21.558c0 23.812-19.304 43.116-43.116 43.116H51.2c-23.812 0-43.116-19.304-43.116-43.116v-21.558h355.705"/><path d="M43.116 88.926a8.082 8.082 0 0 1 8.084-8.084h118.568a8.082 8.082 0 0 1 8.084 8.084 8.082 8.082 0 0 1-8.084 8.084H51.2a8.082 8.082 0 0 1-8.084-8.084zM512 164.379v258.695c0 28.231-22.969 51.2-51.2 51.2H51.2c-28.231 0-51.2-22.969-51.2-51.2V239.832c0-1.299.049-2.586.144-3.862A8.186 8.186 0 0 1 0 234.442V88.926c0-28.231 22.969-51.2 51.2-51.2h144.033a51.143 51.143 0 0 1 47.06 31.032l15.538 36.255a13.457 13.457 0 0 0 12.384 8.166H460.8c28.231 0 51.2 22.969 51.2 51.2zM16.168 202.526a51.328 51.328 0 0 1 16.168-10.294v-17.074c0-16.344 13.298-29.642 29.642-29.642H236.81l6.159-14.37v-.001a29.622 29.622 0 0 1 6.893-9.881 29.622 29.622 0 0 1-6.893-9.881l-15.538-36.256a34.99 34.99 0 0 0-32.199-21.231H51.2c-19.317 0-35.032 15.715-35.032 35.032v113.598zm45.811-40.842c-7.43 0-13.474 6.044-13.474 13.474v13.544a51.26 51.26 0 0 1 2.695-.07h144.033a34.99 34.99 0 0 0 32.199-21.231l2.449-5.716H61.979zm433.853 2.695c0-19.317-15.715-35.032-35.032-35.032H270.215a13.459 13.459 0 0 0-12.384 8.167l-15.538 36.254a51.147 51.147 0 0 1-47.061 31.032H51.2c-19.317 0-35.032 15.715-35.032 35.032v153.6h369.179c4.466 0 8.084 3.618 8.084 8.084s-3.618 8.084-8.084 8.084H16.168v13.474c0 19.317 15.715 35.032 35.032 35.032h409.6c19.317 0 35.032-15.715 35.032-35.032V409.6h-78.147c-4.466 0-8.084-3.618-8.084-8.084s3.618-8.084 8.084-8.084h78.147V164.379z"/></svg>