<svg xmlns="http://www.w3.org/2000/svg" viewBox="0 0 512 512" xml:space="preserve"><path fill="#6E83B7" d="M329.5 298.515c-29.705 0-59.41-11.307-82.024-33.921-45.228-45.229-45.228-118.821 0-164.049l56.569-56.569c45.229-45.229 118.82-45.229 164.048 0 45.229 45.229 45.229 118.821 0 164.049l-56.569 56.569c-22.614 22.614-52.319 33.921-82.024 33.921zm-45.255-70.691c24.955 24.954 65.557 24.953 90.51 0l56.569-56.569c24.954-24.954 24.953-65.556 0-90.51-24.954-24.953-65.557-24.953-90.51 0l-56.569 56.569c-24.953 24.954-24.953 65.556 0 90.51l-18.385 18.384 18.385-18.384z"/><path fill="#6E83B7" d="M126 502.015c-29.705 0-59.41-11.307-82.024-33.921-45.228-45.229-45.228-118.821 0-164.049l56.569-56.569c45.229-45.229 118.82-45.228 164.048 0 45.228 45.229 45.228 118.821 0 164.049l-56.569 56.569c-22.614 22.614-52.319 33.921-82.024 33.921zm56.568-236.485c-16.389 0-32.778 6.238-45.254 18.715l-56.569 56.569c-24.954 24.954-24.954 65.556 0 90.509 24.954 24.954 65.557 24.954 90.51 0l56.569-56.569c24.954-24.954 24.953-65.556 0-90.51-12.477-12.475-28.866-18.714-45.256-18.714z"/><path fill="#466089" d="m154.077 314.08 159.999-160 43.84 43.84-159.999 160z"/></svg>